<?xml version="1.0" encoding="utf-8"?>
<!-- Generator: Adobe Illustrator 24.1.1, SVG Export Plug-In . SVG Version: 6.00 Build 0)  -->
<svg version="1.1" id="Layer_1" xmlns="http://www.w3.org/2000/svg" xmlns:xlink="http://www.w3.org/1999/xlink" x="0px" y="0px"
	 viewBox="0 0 512 512" style="enable-background:new 0 0 512 512;" xml:space="preserve">
<g>
	<path d="M0,36.6C0,16.4,16.4,0,36.6,0h73.1c20.2,0,36.6,16.4,36.6,36.6v73.1c0,20.2-16.4,36.6-36.6,36.6H36.6
		C16.4,146.3,0,129.9,0,109.7V36.6z M182.9,36.6c0-20.2,16.4-36.6,36.6-36.6h73.1c20.2,0,36.6,16.4,36.6,36.6v73.1
		c0,20.2-16.4,36.6-36.6,36.6h-73.1c-20.2,0-36.6-16.4-36.6-36.6V36.6z M365.7,36.6c0-20.2,16.4-36.6,36.6-36.6h73.1
		C495.6,0,512,16.4,512,36.6v73.1c0,20.2-16.4,36.6-36.6,36.6h-73.1c-20.2,0-36.6-16.4-36.6-36.6V36.6z M0,219.4
		c0-20.2,16.4-36.6,36.6-36.6h73.1c20.2,0,36.6,16.4,36.6,36.6v73.1c0,20.2-16.4,36.6-36.6,36.6H36.6C16.4,329.1,0,312.8,0,292.6
		V219.4z M182.9,219.4c0-20.2,16.4-36.6,36.6-36.6h73.1c20.2,0,36.6,16.4,36.6,36.6v73.1c0,20.2-16.4,36.6-36.6,36.6h-73.1
		c-20.2,0-36.6-16.4-36.6-36.6V219.4z M365.7,219.4c0-20.2,16.4-36.6,36.6-36.6h73.1c20.2,0,36.6,16.4,36.6,36.6v73.1
		c0,20.2-16.4,36.6-36.6,36.6h-73.1c-20.2,0-36.6-16.4-36.6-36.6V219.4z M0,402.3c0-20.2,16.4-36.6,36.6-36.6h73.1
		c20.2,0,36.6,16.4,36.6,36.6v73.1c0,20.2-16.4,36.6-36.6,36.6H36.6C16.4,512,0,495.6,0,475.4V402.3z M182.9,402.3
		c0-20.2,16.4-36.6,36.6-36.6h73.1c20.2,0,36.6,16.4,36.6,36.6v73.1c0,20.2-16.4,36.6-36.6,36.6h-73.1c-20.2,0-36.6-16.4-36.6-36.6
		V402.3z M365.7,402.3c0-20.2,16.4-36.6,36.6-36.6h73.1c20.2,0,36.6,16.4,36.6,36.6v73.1c0,20.2-16.4,36.6-36.6,36.6h-73.1
		c-20.2,0-36.6-16.4-36.6-36.6V402.3z"/>
</g>
</svg>
